<svg width="601" height="167" viewBox="0 0 601 167" fill="none" xmlns="http://www.w3.org/2000/svg">
<rect x="0.926758" y="0.354736" width="599.508" height="162.162" rx="39.312" fill="#6B6B6B" fill-opacity="0.13"/>
<path d="M545.153 166.202C545.153 155.393 542.674 144.69 537.859 134.704C533.043 124.717 525.985 115.644 517.087 108.001C508.189 100.357 497.626 94.2946 486 90.1581C474.374 86.0217 461.914 83.8927 449.33 83.8927C436.746 83.8927 424.286 86.0217 412.66 90.1581C401.034 94.2946 390.471 100.357 381.573 108.001C372.675 115.644 365.616 124.717 360.801 134.704C355.985 144.69 353.507 155.393 353.507 166.202L449.33 166.202H545.153Z" fill="#DA8F4D" fill-opacity="0.1"/>
<path d="M276.111 0.355652C276.111 11.1647 273.632 21.8679 268.817 31.8541C264.001 41.8404 256.943 50.9141 248.045 58.5573C239.147 66.2004 228.584 72.2633 216.958 76.3997C205.332 80.5362 192.872 82.6652 180.288 82.6652C167.704 82.6652 155.244 80.5362 143.618 76.3997C131.992 72.2633 121.429 66.2004 112.531 58.5573C103.633 50.9141 96.5745 41.8404 91.7589 31.8541C86.9434 21.8679 84.4648 11.1647 84.4648 0.355644L180.288 0.355652H276.111Z" fill="#DA8F4D" fill-opacity="0.06"/>
</svg>
